<?xml version="1.0" encoding="iso-8859-1"?>
<!-- Generator: Adobe Illustrator 19.0.0, SVG Export Plug-In . SVG Version: 6.00 Build 0)  -->
<svg version="1.1" id="Layer_1" xmlns="http://www.w3.org/2000/svg" xmlns:xlink="http://www.w3.org/1999/xlink" x="0px" y="0px"
	 viewBox="0 0 323.265 323.265" style="enable-background:new 0 0 323.265 323.265;" xml:space="preserve">
<g>
	<g>
		<g>
			<path d="M306.157,127.384c-14.028-48.224-45.992-80.684-95.024-96.48l-1.928-0.632c-11.312-3.74-34.848-11.52-79.024-1.28
				c-8.432,1.808-12.284,3.18-19.7,6.18c-2.48-1.68-4.828-3.296-6.644-5.336c-2.824-3.176-4.152-7.728-3.648-12.488
				c0.504-4.756,2.764-8.932,6.192-11.444c1.028-0.752,1.496-2.048,1.196-3.288c-0.3-1.236-1.316-2.168-2.572-2.364
				c-8.392-1.3-17.272,2.516-22.948,9.22c-0.436,0.248-0.804,0.64-0.988,1.252c-0.02,0.064-0.032,0.132-0.048,0.196
				c-1.388,1.876-2.604,3.892-3.432,6.112c-14.12,37.624-1.332,62.376-1.144,62.732c1.288,2.404,2.872,4.58,4.664,6.528
				c-4.956,4.688-7.844,11.264-7.844,18.152c0,13.776,11.204,24.98,24.98,24.98c5.368,0,10.556-1.748,14.82-4.888l3.476,12.408
				c-0.004,0.404,0.064,0.816,0.224,1.212c8.096,19.66,18.748,41.968,30.812,64.504c9.792,18.3,19.88,35.56,29.56,50.696
				c-0.212,0.212-0.432,0.424-0.58,0.704c-4.44,8.4-0.312,14.068,3.328,19.072c0.916,1.256,1.852,2.536,2.684,3.916
				c4.564,7.568,5.68,14.112,3.62,21.22c-3.6,12.408-13.34,18.7-28.948,18.7c-0.16,0-0.32,0-0.48-0.004
				c-25.98-0.212-53.084-9.228-76.316-25.38c-42.588-29.608-66.984-82.772-60.708-132.296c4.004-31.604,17.04-60.012,37.708-82.164
				c1.184-1.268,1.116-3.264-0.156-4.452c-1.276-1.184-3.264-1.116-4.452,0.156c-21.568,23.12-35.176,52.744-39.348,85.668
				c-6.668,52.592,18.2,106.864,63.36,138.26c24.26,16.864,52.62,26.28,79.856,26.508h0.496c18.244,0,30.676-8.24,35.036-23.244
				c2.556-8.816,1.196-17.148-4.28-26.228c-0.924-1.532-1.96-2.968-2.98-4.372c-2.964-4.068-4.58-6.592-3.808-9.872
				c4.748,7.212,9.384,13.924,13.796,19.852c17.144,23.056,25.572,28.06,30.308,28.06c1.204,0,2.172-0.324,2.98-0.76
				c16.988-9.088-29.296-100.692-34.632-111.104c-0.8-1.552-2.684-2.16-4.24-1.368c-1.548,0.792-2.16,2.688-1.364,4.24
				c33.252,64.932,40.744,99.436,37.312,102.66c-5.904,1.264-34.612-31.296-72.004-101.076l30.24-15.596
				c0.012-0.004,0.016-0.012,0.024-0.016c0.168-0.056,0.34-0.064,0.504-0.152c1.532-0.828,2.108-2.728,1.288-4.268
				c-11.996-22.384-23.616-41.868-35.528-59.572c-0.368-0.552-27.476-31.396-27.476-31.396c4.16-3.664,7.208-8.472,8.772-14.036
				c2.16-7.716,1.232-15.924-2.616-23.124c-2.792-5.208-6.932-9.448-11.968-12.356c4.888-1.884,8.52-3.008,14.996-4.396
				c42.516-9.86,64.084-2.724,75.672,1.112l1.976,0.652c46.92,15.112,77.5,46.148,90.896,92.248
				c8.864,30.5,4.36,57.268-13.388,79.564c-14.488,18.204-33.432,28.228-56.296,29.788c-1.732,0.116-3.044,1.624-2.924,3.36
				c0.112,1.664,1.496,2.936,3.14,2.936c0.072,0,0.148-0.004,0.22-0.012c24.696-1.688,45.152-12.504,60.792-32.152
				C310.741,188.648,315.625,159.968,306.157,127.384z M98.241,125.017c-11.344,0-20.568-9.228-20.568-20.572
				c0-5.752,2.444-11.248,6.632-15.116c2.928,2.392,6.272,4.252,9.932,5.44c3.032,0.992,6.128,1.476,9.192,1.476
				c0.564,0,1.12-0.072,1.68-0.104l6.636,23.68C108.001,123.089,103.245,125.017,98.241,125.017z M178.237,180.113l-27.836,14.356
				c-10.248-19.468-19.404-38.612-26.612-55.828l22.572-12.08C157.017,142.605,167.493,160.228,178.237,180.113z M141.925,121.473
				l-20.156,10.792l-10-35.7l6-3.212L141.925,121.473z M122.969,54.861c3.08,5.76,3.828,12.312,2.104,18.452
				c-1.708,6.1-5.652,11.064-11.104,13.98c-5.444,2.92-11.768,3.448-17.784,1.488c-6.072-1.972-11.112-6.232-14.184-11.984v-0.004
				c-0.064-0.116-3.4-6.628-4.464-18.008c1.68,4.184,3.732,8.268,5.832,12.308c1.316,2.54,5.156,0.296,3.836-2.24
				c-4.748-9.136-9.168-18.32-9.132-28.644c0.46-3.264,1.14-6.708,2.076-10.332c2.04,11.252,8.128,21.772,14.448,31.792
				c1.52,2.412,5.368,0.184,3.836-2.244c-8.068-12.792-16.184-26.452-14.284-41.66c2.548-5.288,7.54-9.336,12.988-10.832
				c-1.724,2.872-2.836,6.2-3.216,9.752c-0.692,6.52,1.208,12.84,5.208,17.336c2.452,2.756,5.396,4.748,8.244,6.676
				c1.764,1.196,3.436,2.32,4.952,3.596c0.16,0.136,0.34,0.256,0.524,0.36C117.133,46.965,120.629,50.496,122.969,54.861z"/>
			<path d="M222.125,153.329c0,13.772,11.204,24.98,24.98,24.98s24.98-11.204,24.98-24.98c0-13.772-11.204-24.98-24.98-24.98
				C233.333,128.349,222.125,139.553,222.125,153.329z M267.677,153.329c0,11.344-9.228,20.572-20.572,20.572
				s-20.572-9.228-20.572-20.572s9.228-20.572,20.572-20.572S267.677,141.985,267.677,153.329z"/>
			<path d="M168.245,83.337c0,13.772,11.204,24.98,24.98,24.98s24.98-11.204,24.98-24.98c0-13.772-11.204-24.98-24.98-24.98
				C179.453,58.361,168.245,69.564,168.245,83.337z M213.797,83.337c0,11.344-9.228,20.572-20.572,20.572
				s-20.572-9.228-20.572-20.572s9.228-20.572,20.572-20.572S213.797,71.996,213.797,83.337z"/>
			<path d="M68.245,160.009c-13.772,0-24.98,11.204-24.98,24.98s11.204,24.98,24.98,24.98c13.772,0,24.98-11.204,24.98-24.98
				C93.225,171.217,82.017,160.009,68.245,160.009z M68.245,205.556c-11.344,0-20.572-9.228-20.572-20.572
				s9.228-20.572,20.572-20.572s20.572,9.228,20.572,20.572C88.817,196.332,79.589,205.556,68.245,205.556z"/>
			<path d="M112.681,229.444c-13.772,0-24.98,11.204-24.98,24.98s11.204,24.98,24.98,24.98c13.772,0,24.98-11.204,24.98-24.98
				S126.457,229.444,112.681,229.444z M112.681,274.993c-11.344,0-20.572-9.228-20.572-20.572s9.228-20.572,20.572-20.572
				s20.572,9.228,20.572,20.572S124.025,274.993,112.681,274.993z"/>
			<path d="M285.693,169.305c-1.356,5.4-3.452,10.672-6.232,15.668c-0.592,1.064-0.208,2.408,0.856,2.996
				c0.34,0.188,0.708,0.276,1.072,0.276c0.772,0,1.524-0.404,1.928-1.132c2.964-5.332,5.204-10.964,6.656-16.732
				c0.292-1.18-0.424-2.376-1.604-2.676C287.177,167.421,285.989,168.129,285.693,169.305z"/>
			<path d="M291.605,160.829c2.396-25.628-6.94-51.764-26.288-73.584c-0.812-0.912-2.2-0.996-3.112-0.184
				c-0.912,0.808-0.992,2.2-0.184,3.112c18.528,20.896,27.476,45.844,25.196,70.248c-0.112,1.212,0.776,2.288,1.992,2.4
				c0.072,0.004,0.136,0.012,0.208,0.012C290.537,162.832,291.497,161.977,291.605,160.829z"/>
			<path d="M133.041,149.217c3.58,6.184,6.76,12.508,9.792,18.972c1.212,2.588,5.044,0.336,3.836-2.24
				c-3.032-6.468-6.208-12.792-9.792-18.972C135.449,144.501,131.605,146.733,133.041,149.217z"/>
			<path d="M151.469,184.293c1.52,2.416,5.368,0.188,3.836-2.24c-1.384-2.2-2.656-4.452-3.816-6.776
				c-1.284-2.556-5.116-0.312-3.836,2.24C148.813,179.84,150.085,182.092,151.469,184.293z"/>
			<path d="M35.025,144.125c0.204,0.06,0.408,0.088,0.608,0.088c0.956,0,1.84-0.632,2.116-1.596
				c6.128-21.34,17.308-41.136,32.328-57.24c0.836-0.896,0.788-2.288-0.104-3.116c-0.888-0.832-2.284-0.784-3.116,0.104
				c-15.5,16.612-27.032,37.024-33.348,59.036C33.177,142.569,33.853,143.789,35.025,144.125z"/>
			<path d="M30.549,153.697c-1.772,9.12-2.684,18.476-2.704,27.804c0,1.22,0.98,2.208,2.2,2.208h0.004c1.216,0,2.2-0.984,2.204-2.2
				c0.016-9.048,0.9-18.124,2.628-26.976c0.232-1.188-0.552-2.344-1.744-2.58C31.949,151.736,30.785,152.496,30.549,153.697z"/>
			<path d="M97.581,287.124c-1.016-0.652-2.38-0.36-3.044,0.672c-0.652,1.02-0.356,2.388,0.672,3.04
				c6.452,4.124,13.3,7.64,20.348,10.44c0.272,0.104,0.544,0.156,0.816,0.156c0.876,0,1.704-0.524,2.048-1.388
				c0.452-1.132-0.104-2.416-1.232-2.864C110.401,294.48,103.805,291.1,97.581,287.124z"/>
			<path d="M122.789,301.592c-0.364,1.164,0.284,2.4,1.444,2.764c11.088,3.472,20.644,5.208,28.648,5.208
				c14.608,0,24.048-5.776,28.18-17.3c0.412-1.148-0.184-2.404-1.332-2.816c-1.132-0.404-2.408,0.184-2.816,1.332
				c-5.456,15.192-22.736,18.344-51.36,9.368C124.369,299.769,123.157,300.428,122.789,301.592z"/>
		</g>
	</g>
</g>
<g>
</g>
<g>
</g>
<g>
</g>
<g>
</g>
<g>
</g>
<g>
</g>
<g>
</g>
<g>
</g>
<g>
</g>
<g>
</g>
<g>
</g>
<g>
</g>
<g>
</g>
<g>
</g>
<g>
</g>
</svg>
