<?xml version="1.0" encoding="iso-8859-1"?>
<!-- Generator: Adobe Illustrator 19.0.0, SVG Export Plug-In . SVG Version: 6.00 Build 0)  -->
<svg version="1.1" id="Layer_1" xmlns="http://www.w3.org/2000/svg" xmlns:xlink="http://www.w3.org/1999/xlink" x="0px" y="0px"
	 viewBox="0 0 503.632 503.632" style="enable-background:new 0 0 503.632 503.632;" xml:space="preserve">
<g>
	<g>
		<path d="M281.084,61.268c-3.58,0-7.4,0.584-11.084,1.752c-0.468,0.14-1,0.132-1.428,0.368l-175.88,93.968h-21.6
			C31.864,157.356,0,189.664,0,228.9v46.584c0,39.22,31.868,70.716,71.092,70.716h21.632l175.796,93.704
			c0.428,0.236,0.876,0.52,1.336,0.668c3.704,1.156,7.384,1.792,10.968,1.792c8.288,0,16.084-3.132,21.46-8.88
			c5.392-5.76,8.524-13.528,8.524-22.472V92.684C310.804,74.476,298.148,61.268,281.084,61.268z"/>
	</g>
</g>
<g>
	<g>
		<path d="M347.048,189.452c-4.148-1.316-8.556,1.024-9.852,5.168c-1.296,4.152,1.024,8.564,5.18,9.852
			c20.892,6.508,34.928,25.6,34.928,47.516c0,21.904-14.048,41-34.936,47.508c-4.156,1.292-6.476,5.708-5.18,9.852
			c1.048,3.364,4.156,5.536,7.508,5.536c0.78,0,1.564-0.116,2.344-0.36c27.516-8.576,46-33.7,46-62.536
			C393.04,223.144,374.564,198.016,347.048,189.452z"/>
	</g>
</g>
<g>
	<g>
		<path d="M362.812,138.316c-4.14-1.296-8.564,1.024-9.852,5.168c-1.288,4.152,1.016,8.564,5.18,9.852
			c43.5,13.56,72.736,53.308,72.736,98.924c0,45.608-29.236,85.368-72.752,98.912c-4.156,1.296-6.46,5.708-5.172,9.852
			c1.048,3.372,4.156,5.536,7.508,5.536c0.78,0,1.572-0.116,2.344-0.36c50.132-15.616,83.812-61.396,83.812-113.94
			S412.936,153.924,362.812,138.316z"/>
	</g>
</g>
<g>
	<g>
		<path d="M379.92,83.812c-4.148-1.284-8.564,1.032-9.852,5.184c-1.296,4.148,1.032,8.564,5.172,9.852
			c67.384,20.96,112.648,82.504,112.648,153.14c0,70.604-45.248,132.14-112.608,153.124c-4.148,1.288-6.46,5.696-5.164,9.852
			c1.048,3.364,4.148,5.524,7.5,5.524c0.78,0,1.572-0.108,2.352-0.36c73.968-23.032,123.664-90.6,123.664-168.14
			C503.632,174.416,453.912,106.84,379.92,83.812z"/>
	</g>
</g>
<g>
</g>
<g>
</g>
<g>
</g>
<g>
</g>
<g>
</g>
<g>
</g>
<g>
</g>
<g>
</g>
<g>
</g>
<g>
</g>
<g>
</g>
<g>
</g>
<g>
</g>
<g>
</g>
<g>
</g>
</svg>
