<?xml version="1.0" encoding="iso-8859-1"?>
<!-- Generator: Adobe Illustrator 19.0.0, SVG Export Plug-In . SVG Version: 6.00 Build 0)  -->
<svg version="1.1" id="Layer_1" xmlns="http://www.w3.org/2000/svg" xmlns:xlink="http://www.w3.org/1999/xlink" x="0px" y="0px"
	 viewBox="0 0 507.2 507.2" style="enable-background:new 0 0 507.2 507.2;" xml:space="preserve">
<path style="fill:#FFC52F;" d="M68.4,169.795c-34.4,0-62,26.4-62,60.8v47.2c0,34.4,28,64,62,64h22v-172H68.4z"/>
<path style="fill:#EFDC81;" d="M94.4,340.595l180,96c2.4,0.8,4.8,1.2,7.6,1.2c5.6,0,10.8-2,14.4-6c3.6-4,6-9.6,6-16v-323.6
	c0-13.2-8.4-22-20.4-22c-2.8,0-5.2,0.4-8,1.2l-179.6,96.4V340.595z"/>
<path d="M282.4,443.395c-3.2,0-6.4-0.4-10-1.6c-0.4,0-0.4,0-0.8-0.4L94,346.995c-0.4,0.4-1.2,0.4-2,0.4H72c-38.4,0-72-32.8-72-70
	v-47.2c0-36,32.8-66.8,72-66.8h17.2c0.4-0.4,0.8-0.8,1.2-0.8l181.2-96.8c0.4,0,0.4-0.4,0.8-0.4c9.6-2.8,18.4-2,25.2,3.2
	s10.8,13.2,10.8,23.2v323.6c0,10-3.6,18-10.8,23.2C293.2,441.795,288,443.395,282.4,443.395z M275.2,434.595c6.8,2,13.2,1.2,18-2
	c4.8-3.6,7.6-9.6,7.6-16.8v-323.6c0-7.2-2.8-13.2-7.6-16.8c-4.8-3.6-11.2-4.4-18-2l-178.8,95.6c-0.4,1.6-2,2.8-4,2.8h-20
	c-34.8,0-64,26.8-64,58.8v47.2c0,32.4,30.4,62,64,62h16.8c0.4-0.4,0.8-1.2,1.2-1.2c1.2-0.8,2.8-0.8,4,0L275.2,434.595z"/>
<path d="M92.4,345.795c-2.4,0-4-1.6-4-4v-172c0-2.4,1.6-4,4-4s4,1.6,4,4v172C96.4,344.195,94.8,345.795,92.4,345.795z"/>
<path d="M256,114.995c-1.6,0-2.8-0.8-3.6-2c-1.2-2-0.4-4.4,1.6-5.2l23.2-12c2-1.2,4.4-0.4,5.2,1.6c1.2,2,0.4,4.4-1.6,5.2l-23.2,12
	C257.2,114.995,256.8,114.995,256,114.995z"/>
<path d="M95.6,198.195c-1.6,0-2.8-0.8-3.6-2c-1.2-2-0.4-4.4,1.6-5.2l144-74.8c2-1.2,4.4-0.4,5.2,1.6c1.2,2,0.4,4.4-1.6,5.2
	l-144,74.8C97.2,198.195,96.4,198.195,95.6,198.195z"/>
<path d="M279.6,413.795c-0.8,0-1.2,0-2-0.4L94,318.195c-2-1.2-2.8-3.6-1.6-5.2c1.2-2,3.6-2.8,5.2-1.6l183.6,95.2
	c2,1.2,2.8,3.6,1.6,5.2C282.4,412.995,280.8,413.795,279.6,413.795z"/>
<path d="M344.8,315.795c-1.6,0-3.2-1.2-4-2.8c-0.8-2,0.4-4.4,2.8-5.2c23.6-7.2,39.6-29.2,39.6-54s-16-46.4-39.6-54
	c-2-0.8-3.2-2.8-2.8-5.2c0.8-2,2.8-3.2,5.2-2.8c27.2,8.4,45.2,33.2,45.2,61.6s-18.4,53.2-45.2,61.6
	C345.6,315.795,345.2,315.795,344.8,315.795z"/>
<path d="M361.2,369.795c-1.6,0-3.2-1.2-4-2.8c-0.8-2,0.4-4.4,2.8-5.2c47.6-14.8,79.2-58,79.2-108c0-49.6-32-93.2-79.2-108
	c-2-0.8-3.2-2.8-2.8-5.2c0.8-2,2.8-3.2,5.2-2.8c50.8,16,84.8,62.4,84.8,115.6s-34,99.6-84.8,115.6
	C362,369.795,361.6,369.795,361.2,369.795z"/>
<path d="M379.2,426.595c-1.6,0-3.2-1.2-4-2.8c-0.8-2,0.4-4.4,2.8-5.2c72.4-22.4,121.2-88.8,121.2-164.8s-48.8-142.4-121.2-164.8
	c-2-0.8-3.2-2.8-2.8-5.2c0.8-2,2.8-3.2,5.2-2.8c76,23.6,126.8,92.8,126.8,172.4s-50.8,148.8-126.8,172.4
	C380,426.595,379.6,426.595,379.2,426.595z"/>
<g>
</g>
<g>
</g>
<g>
</g>
<g>
</g>
<g>
</g>
<g>
</g>
<g>
</g>
<g>
</g>
<g>
</g>
<g>
</g>
<g>
</g>
<g>
</g>
<g>
</g>
<g>
</g>
<g>
</g>
</svg>
